<?xml version="1.0" encoding="UTF-8"?>
<svg width="606px" height="398px" viewBox="0 0 606 398" version="1.1" xmlns="http://www.w3.org/2000/svg" xmlns:xlink="http://www.w3.org/1999/xlink">
    <!-- Generator: Sketch 41.2 (35397) - http://www.bohemiancoding.com/sketch -->
    <title>Map</title>
    <desc>Created with Sketch.</desc>
    <defs></defs>
    <g id="Page-1" stroke="none" stroke-width="1" fill="none" fill-rule="evenodd">
        <g id="Desktop-HD" transform="translate(-578.000000, -229.000000)" fill="#1B54FD">
            <g id="MAPS" transform="translate(573.000000, 162.000000)">
                <g id="Map" transform="translate(3.000000, 67.000000)">
                    <rect id="Rectangle-33" transform="translate(20.532739, 379.517139) rotate(-46.000000) translate(-20.532739, -379.517139) " x="2.13601914" y="369.019757" width="36.7934403" height="20.9947644" rx="5"></rect>
                    <path d="M477.45479,96.5759162 L477.45479,109.41568 C477.45479,112.180299 475.215814,114.421466 472.455121,114.421466 L457.224671,114.421466 C454.46343,114.421466 452.225002,112.176389 452.225002,109.41568 L452.225002,22.8513354 C452.225002,21.4690258 452.784746,20.2175794 453.689577,19.3117104 C454.590065,18.4058894 455.839996,17.8455497 457.225337,17.8455497 L480.608513,17.8455497 L480.608513,5.0059924 C480.608513,2.24125914 482.845895,0 485.608039,0 L573.374414,0 C576.135576,0 578.37394,2.23351659 578.37394,5.0059924 L578.37394,17.8455497 L602.808357,17.8455497 C605.569966,17.8455497 607.808692,20.0813241 607.808692,22.8531395 L607.808692,38.0316772 C607.808692,38.4938751 607.746429,38.9414476 607.629778,39.366374 C607.746401,39.790708 607.808692,40.2377011 607.808692,40.6994309 L607.808692,91.5675848 C607.808692,94.3336099 605.562994,96.5759162 602.804187,96.5759162 L477.45479,96.5759162 Z" id="Combined-Shape"></path>
                    <path d="M540.529259,196.827657 L540.529259,123.619759 C540.529259,120.858135 538.288674,118.620419 535.524772,118.620419 L458.28073,118.620419 C455.520754,118.620419 453.276243,120.8587 453.276243,123.619759 L453.276243,205.998042 C453.276243,208.759666 455.516828,210.997382 458.28073,210.997382 L482.710996,210.997382 L482.710996,239.586183 C482.710996,242.348132 484.951674,244.589005 487.71569,244.589005 L535.524564,244.589005 C538.298142,244.589005 540.529259,242.349165 540.529259,239.586183 L540.529259,196.827657 Z" id="Combined-Shape"></path>
                    <path d="M491.120925,315.971204 L487.967201,315.971204 L487.967201,335.122809 C487.967201,337.880021 485.728226,340.115183 482.967532,340.115183 L473.249825,340.115183 L473.249825,358.210478 C473.249825,360.97132 471.019706,363.209424 468.240568,363.209424 L457.234259,363.209424 C454.467723,363.209424 452.225002,360.969093 452.225002,358.210478 L452.225002,303.374346 L446.710823,303.374346 C443.950375,303.374346 441.712591,301.132728 441.712591,298.373322 L441.712591,253.788982 C441.712591,251.026993 443.950162,248.787958 446.710823,248.787958 L508.198757,248.787958 C510.959204,248.787958 513.196989,251.029576 513.196989,253.788982 L513.196989,296.549518 L513.196989,310.197431 L513.196989,357.162146 C513.196989,359.922211 510.95873,362.159686 508.187588,362.159686 L496.130325,362.159686 C493.36371,362.159686 491.120925,359.914102 491.120925,357.162146 L491.120925,315.971204 Z" id="Combined-Shape"></path>
                    <path d="M402.816668,331.717277 L402.816668,285.278783 C402.816668,282.512651 400.57824,280.280105 397.816999,280.280105 L382.586549,280.280105 C379.825856,280.280105 377.586881,282.518089 377.586881,285.278783 L377.586881,318.134587 C377.325603,318.092536 377.057561,318.070681 376.784411,318.070681 L351.05708,318.070681 C348.285481,318.070681 346.049646,320.308785 346.049646,323.069626 L346.049646,378.155504 C346.049646,380.91412 348.291551,383.15445 351.05708,383.15445 L376.784411,383.15445 C379.55601,383.15445 381.791845,380.916346 381.791845,378.155504 L381.791845,362.159686 L443.028236,362.159686 C445.78742,362.159686 448.020038,359.924308 448.020038,357.16683 L448.020038,336.710133 C448.020038,333.95578 445.785132,331.717277 443.028236,331.717277 L402.816668,331.717277 Z" id="Combined-Shape"></path>
                    <path d="M361.818263,247.73822 L345.789559,247.73822 C343.041731,247.73822 340.79344,249.979479 340.79344,252.744212 L340.79344,256.136126 L327.919607,256.136126 C325.159847,256.136126 322.922341,258.375419 322.922341,261.137728 L322.922341,270.029811 C322.922341,272.789675 325.159693,275.031414 327.919607,275.031414 L407.021633,275.031414 L407.021633,323.569656 C407.021633,324.95321 407.581277,326.202811 408.4861,327.106525 C409.393192,328.005956 410.645271,328.568063 412.028331,328.568063 L443.013339,328.568063 C445.78667,328.568063 448.020038,326.328548 448.020038,323.565967 L448.020038,312.575394 C448.020038,309.820106 445.778462,307.573298 443.013339,307.573298 L437.507626,307.573298 L437.507626,263.4805 L437.507626,254.56788 L437.507626,243.539267 L473.500158,243.539267 C476.273715,243.539267 478.506031,241.299838 478.506031,238.537363 L478.506031,220.198239 C478.506031,217.444048 476.264825,215.196335 473.500158,215.196335 L391.253015,215.196335 L391.253015,204.448133 C391.253015,201.688537 389.017482,199.450262 386.259811,199.450262 L366.811468,199.450262 C364.054813,199.450262 361.818263,201.687885 361.818263,204.448133 L361.818263,247.73822 Z M403.867909,201.305047 C403.867909,198.541414 406.110421,196.301047 408.868029,196.301047 L414.636407,196.301047 C417.397897,196.301047 419.636527,198.539224 419.636527,201.305047 L419.636527,204.943644 C419.636527,207.707277 417.394014,209.947644 414.636407,209.947644 L408.868029,209.947644 C406.106539,209.947644 403.867909,207.709467 403.867909,204.943644 L403.867909,201.305047 Z" id="Combined-Shape"></path>
                    <rect id="Rectangle-4" x="183.107268" y="257.185864" width="76.740604" height="69.2827225" rx="5"></rect>
                    <rect id="Rectangle-6" x="184.158509" y="331.717277" width="105.124115" height="51.4371728" rx="5"></rect>
                    <path d="M266.155319,290.777428 L266.155319,263.235874 C266.155319,260.4743 268.401796,258.235602 271.164666,258.235602 L312.656788,258.235602 C315.423374,258.235602 317.666135,260.473944 317.666135,263.235874 L317.666135,280.280105 L367.334323,280.280105 C370.093732,280.280105 372.330675,282.52633 372.330675,285.28026 L372.330675,309.921311 C372.330675,312.68282 370.088554,314.921466 367.334323,314.921466 L340.79344,314.921466 L340.79344,379.20418 C340.79344,381.965608 338.562484,384.204188 335.799439,384.204188 L299.532831,384.204188 C296.77472,384.204188 294.53883,381.968016 294.53883,379.20418 L294.53883,326.468586 L271.153881,326.468586 C268.393251,326.468586 266.155319,324.226505 266.155319,321.473876 L266.155319,313.617747 C266.155319,312.964445 266.280609,312.340439 266.508572,311.768495 C266.280649,311.196583 266.155319,310.573169 266.155319,309.921311 L266.155319,290.777428 Z" id="Combined-Shape"></path>
                    <path d="M71.2766331,262.087214 C71.3047406,259.330945 73.5745499,257.096547 76.331654,257.096547 L170.438327,257.096547 C173.20203,257.096547 175.442454,259.336709 175.442454,262.093536 L175.442454,378.083814 C175.442454,380.843575 173.199389,383.080803 170.443582,383.080803 L127.050615,383.080803 C124.289814,383.080803 122.051742,380.852156 122.051742,378.09018 L122.051742,317.499147 C122.051742,314.742902 119.814926,312.508524 117.052237,312.508524 L75.7619587,312.508524 C73.0008081,312.508524 70.7853047,310.267679 70.8133464,307.517857 L71.2766331,262.087214 Z" id="Path-2"></path>
                </g>
            </g>
        </g>
    </g>
</svg>